<svg width="251" height="195" viewBox="0 0 251 195" fill="none" xmlns="http://www.w3.org/2000/svg">
<path d="M125.5 0L152.85 18.2023L188.25 13.0625L200.221 39.4501L234.186 48.75L227.57 76.2523L251 97.5L227.57 118.748L234.186 146.25L200.221 155.55L188.25 181.937L152.85 176.798L125.5 195L98.1503 176.798L62.75 181.937L50.7793 155.55L16.8138 146.25L23.4296 118.748L0 97.5L23.4296 76.2523L16.8138 48.75L50.7793 39.4501L62.75 13.0625L98.1503 18.2023L125.5 0Z" fill="#FFECA7"/>
<path d="M178 54V142H159.654V71.3812H159.168L139 84.0221V67.8564L160.748 54H178Z" fill="#00F3B2"/>
<path d="M122.827 112.81C133.239 90.524 127.441 65.8159 109.865 57.6404C92.29 49.4649 69.5848 60.9106 59.1732 83.1963C48.7615 105.482 54.5592 130.19 72.1346 138.366C79.6322 141.848 88.0708 141.757 96.054 138.759V141H124.678L115.754 124.195C118.456 120.834 120.884 117.019 122.827 112.81ZM85.1264 110.599C74.9272 105.845 71.5274 91.4929 77.5984 78.5635C83.6389 65.6039 96.8432 58.9727 107.042 63.7266C117.242 68.4805 120.641 82.833 114.57 95.7623C112.537 100.153 109.653 103.786 106.375 106.512L96.0844 87.1629V111.689C92.3508 112.477 88.5868 112.204 85.1264 110.599Z" fill="#00F3B2"/>
</svg>
