<svg width="251" height="195" viewBox="0 0 251 195" fill="none" xmlns="http://www.w3.org/2000/svg">
<path d="M125.5 0L152.85 18.2023L188.25 13.0625L200.221 39.4501L234.186 48.75L227.57 76.2523L251 97.5L227.57 118.748L234.186 146.25L200.221 155.55L188.25 181.937L152.85 176.798L125.5 195L98.1503 176.798L62.75 181.937L50.7793 155.55L16.8138 146.25L23.4296 118.748L0 97.5L23.4296 76.2523L16.8138 48.75L50.7793 39.4501L62.75 13.0625L98.1503 18.2023L125.5 0Z" fill="#FFECA7"/>
<path d="M119.827 112.81C130.239 90.524 124.441 65.8159 106.865 57.6404C89.29 49.4649 66.5848 60.9106 56.1732 83.1963C45.7615 105.482 51.5592 130.19 69.1346 138.366C76.6322 141.848 85.0708 141.757 93.054 138.759V141H121.678L112.754 124.195C115.456 120.834 117.884 117.019 119.827 112.81ZM82.1264 110.599C71.9272 105.845 68.5274 91.4929 74.5984 78.5635C80.6389 65.6039 93.8432 58.9727 104.042 63.7266C114.242 68.4805 117.641 82.833 111.57 95.7623C109.537 100.153 106.653 103.786 103.375 106.512L93.0844 87.1629V111.689C89.3508 112.477 85.5868 112.204 82.1264 110.599Z" fill="#00F3B2"/>
<path d="M130.175 141V126.421L161.176 98.9223C168.398 92.2847 172.508 87.8992 172.567 81.3801C172.508 74.2091 167.283 69.8236 160.119 69.7643C152.839 69.8236 147.965 74.4462 148.024 82.2098H129C128.941 64.9046 141.507 54 160.237 54C179.378 54 191.884 64.4898 191.943 79.8392C191.884 89.6771 187.07 97.9148 168.692 114.094L158.006 124.05V124.643H193V141H130.175Z" fill="#00F3B2"/>
</svg>
