<svg width="251" height="195" viewBox="0 0 251 195" fill="none" xmlns="http://www.w3.org/2000/svg">
<path d="M125.5 0L152.85 18.2023L188.25 13.0625L200.221 39.4501L234.186 48.75L227.57 76.2523L251 97.5L227.57 118.748L234.186 146.25L200.221 155.55L188.25 181.937L152.85 176.798L125.5 195L98.1503 176.798L62.75 181.937L50.7793 155.55L16.8138 146.25L23.4296 118.748L0 97.5L23.4296 76.2523L16.8138 48.75L50.7793 39.4501L62.75 13.0625L98.1503 18.2023L125.5 0Z" fill="#FFECA7"/>
<path d="M117.827 112.81C128.239 90.524 122.441 65.8159 104.865 57.6404C87.29 49.4649 64.5848 60.9106 54.1732 83.1963C43.7615 105.482 49.5592 130.19 67.1346 138.366C74.6322 141.848 83.0708 141.757 91.054 138.759V141H119.678L110.754 124.195C113.456 120.834 115.884 117.019 117.827 112.81ZM80.1264 110.599C69.9272 105.845 66.5274 91.4929 72.5984 78.5635C78.6389 65.6039 91.8432 58.9727 102.042 63.7266C112.242 68.4805 115.641 82.833 109.57 95.7623C107.537 100.153 104.653 103.786 101.375 106.512L91.0844 87.1629V111.689C87.3508 112.477 83.5868 112.204 80.1264 110.599Z" fill="#00F3B2"/>
<path d="M164.865 145.82C145.578 145.759 128 134.285 128 101.997C128.122 72.7002 142.771 55 165.354 55C183.908 55 196.481 66.7798 198.19 81.6113H177.683C176.34 75.874 171.579 72.7612 165.354 72.8223C154.184 72.7612 148.63 83.0151 148.63 99.0674H149.24C153.024 91.0718 161.936 86.3721 171.823 86.3721C187.814 86.3721 199.228 98.2739 199.167 114.692C199.228 133.125 185.251 145.82 164.865 145.82ZM150.583 115.425C150.583 123.42 156.564 129.768 164.743 129.707C172.983 129.768 179.025 123.542 178.903 115.303C179.025 107.185 173.044 101.021 164.865 101.021C156.687 101.021 150.583 107.307 150.583 115.425Z" fill="#00F3B2"/>
</svg>
