<svg width="553" height="553" viewBox="0 0 553 553" fill="none" xmlns="http://www.w3.org/2000/svg">
<path fill-rule="evenodd" clip-rule="evenodd" d="M409.637 145.296L482.907 91.902V92.1005C524.407 138.548 550.419 198.889 553 265.384L463.448 279.477L552.602 293.57C548.433 359.668 521.428 419.415 478.936 465.068L406.659 412.467L459.079 484.322C412.615 525.211 352.451 550.618 286.329 553L272.628 466.457L259.125 552.603C193.599 548.435 134.229 521.638 88.758 479.756L139.789 409.688L69.8942 460.503C28.7915 414.651 2.97846 354.905 0 289.204L85.7797 275.706L0.198758 262.209C3.57434 196.309 29.7845 136.761 71.2843 90.9095L142.569 142.716L90.7438 71.4573C136.612 29.5754 196.578 3.37437 262.7 0L276.599 88.5276L290.499 0C357.018 3.37437 416.984 29.9724 463.051 71.8543L409.637 145.296Z" fill="#00F3B2"/>
</svg>
