<svg width="487" height="531" viewBox="0 0 487 531" fill="none" xmlns="http://www.w3.org/2000/svg">
<path d="M446.387 328.8C414.04 296.477 368.574 282.47 323.648 290.551L305.498 272.414L466.513 111.515C493.829 84.2202 493.829 39.6858 466.513 12.3906L454.114 0L243.501 210.461L32.8862 0L20.4866 12.3906C7.18845 25.6791 0 43.2773 0 61.953C0 80.6287 7.36815 98.2269 20.4866 111.515L181.502 272.414L163.352 290.73C118.426 282.47 72.9602 296.656 40.6134 328.979C14.3765 355.197 0 389.855 0 426.847C0 463.839 14.3765 498.497 40.6134 524.715L46.9037 531L243.501 334.546L440.097 531L446.387 524.715C472.623 498.497 487 463.839 487 426.847C487 389.855 472.623 355.197 446.387 328.979V328.8Z" fill="#7357EA"/>
</svg>
