<svg width="251" height="195" viewBox="0 0 251 195" fill="none" xmlns="http://www.w3.org/2000/svg">
<path d="M125.5 0L152.85 18.2023L188.25 13.0625L200.221 39.4501L234.186 48.75L227.57 76.2523L251 97.5L227.57 118.748L234.186 146.25L200.221 155.55L188.25 181.937L152.85 176.798L125.5 195L98.1503 176.798L62.75 181.937L50.7793 155.55L16.8138 146.25L23.4296 118.748L0 97.5L23.4296 76.2523L16.8138 48.75L50.7793 39.4501L62.75 13.0625L98.1503 18.2023L125.5 0Z" fill="#FFECA7"/>
<path d="M178 54V142H159.654V71.3812H159.168L139 84.0221V67.8564L160.748 54H178Z" fill="#00F3B2"/>
<path d="M69.2141 134.167C69.2141 120.012 80.7507 108.553 95 108.553C109.249 108.553 120.786 120.012 120.786 134.167C120.786 136.18 120.518 138.134 120.1 140H139L120.547 57H69.4526L51 140H69.8997C69.4526 138.134 69.2141 136.18 69.2141 134.167ZM81.168 74.8851H108.862V90.1645H81.168V74.8851Z" fill="#00F3B2"/>
</svg>
