<svg width="251" height="195" viewBox="0 0 251 195" fill="none" xmlns="http://www.w3.org/2000/svg">
<path d="M125.5 0L152.85 18.2023L188.25 13.0625L200.221 39.4501L234.186 48.75L227.57 76.2523L251 97.5L227.57 118.748L234.186 146.25L200.221 155.55L188.25 181.937L152.85 176.798L125.5 195L98.1503 176.798L62.75 181.937L50.7793 155.55L16.8138 146.25L23.4296 118.748L0 97.5L23.4296 76.2523L16.8138 48.75L50.7793 39.4501L62.75 13.0625L98.1503 18.2023L125.5 0Z" fill="#FFECA7"/>
<path d="M140.175 139V124.421L171.176 96.9223C178.398 90.2847 182.508 85.8992 182.567 79.3801C182.508 72.2091 177.283 67.8236 170.119 67.7643C162.839 67.8236 157.965 72.4462 158.024 80.2098H139C138.941 62.9046 151.507 52 170.237 52C189.378 52 201.884 62.4898 201.943 77.8392C201.884 87.6771 197.07 95.9148 178.692 112.094L168.006 122.05V122.643H203V139H140.175Z" fill="#00F3B2"/>
<path d="M65.4211 133.096C65.4211 118.772 77.0888 107.174 91.5 107.174C105.911 107.174 117.579 118.772 117.579 133.096C117.579 135.134 117.308 137.112 116.886 139H136L117.338 55H65.6623L47 139H66.1145C65.6623 137.112 65.4211 135.134 65.4211 133.096ZM77.5108 73.1006H105.519V88.564H77.5108V73.1006Z" fill="#00F3B2"/>
</svg>
