<svg width="251" height="195" viewBox="0 0 251 195" fill="none" xmlns="http://www.w3.org/2000/svg">
<path d="M125.5 0L152.85 18.2023L188.25 13.0625L200.221 39.4501L234.186 48.75L227.57 76.2523L251 97.5L227.57 118.748L234.186 146.25L200.221 155.55L188.25 181.937L152.85 176.798L125.5 195L98.1503 176.798L62.75 181.937L50.7793 155.55L16.8138 146.25L23.4296 118.748L0 97.5L23.4296 76.2523L16.8138 48.75L50.7793 39.4501L62.75 13.0625L98.1503 18.2023L125.5 0Z" fill="#FFECA7"/>
<path d="M62.4211 133.096C62.4211 118.772 74.0888 107.174 88.5 107.174C102.911 107.174 114.579 118.772 114.579 133.096C114.579 135.134 114.308 137.112 113.886 139H133L114.338 55H62.6623L44 139H63.1145C62.6623 137.112 62.4211 135.134 62.4211 133.096ZM74.5108 73.1006H102.519V88.564H74.5108V73.1006Z" fill="#00F3B2"/>
<path d="M165.668 142.82C145.526 142.82 131.183 131.712 131 115.843H151.996C152.179 121.763 157.917 125.792 165.79 125.853C173.603 125.792 179.218 121.397 179.096 114.988C179.218 108.58 173.236 104.063 163.959 104.002H155.414V89.1094H163.959C172.016 89.1704 177.631 84.8369 177.631 78.4893C177.631 72.5078 172.87 68.2964 165.79 68.2354C158.527 68.2964 152.851 72.4468 152.729 78.6113H132.709C132.953 62.9253 146.869 52 165.912 52C184.772 52 197.711 62.8643 197.65 77.2686C197.711 87.1562 190.509 94.0532 180.316 95.5791V96.1895C193.866 97.8374 201.007 105.589 200.946 116.575C201.007 131.895 186.298 142.82 165.668 142.82Z" fill="#00F3B2"/>
</svg>
