<svg width="251" height="195" viewBox="0 0 251 195" fill="none" xmlns="http://www.w3.org/2000/svg">
<path d="M125.5 0L152.85 18.2023L188.25 13.0625L200.221 39.4501L234.186 48.75L227.57 76.2523L251 97.5L227.57 118.748L234.186 146.25L200.221 155.55L188.25 181.937L152.85 176.798L125.5 195L98.1503 176.798L62.75 181.937L50.7793 155.55L16.8138 146.25L23.4296 118.748L0 97.5L23.4296 76.2523L16.8138 48.75L50.7793 39.4501L62.75 13.0625L98.1503 18.2023L125.5 0Z" fill="#FFECA7"/>
<path d="M59.4211 133.096C59.4211 118.772 71.0888 107.174 85.5 107.174C99.9112 107.174 111.579 118.772 111.579 133.096C111.579 135.134 111.308 137.112 110.886 139H130L111.338 55H59.6623L41 139H60.1145C59.6623 137.112 59.4211 135.134 59.4211 133.096ZM71.5108 73.1006H99.5193V88.564H71.5108V73.1006Z" fill="#00F3B2"/>
<path d="M163.569 144.6C144.221 144.6 130.305 133.369 130 117.622H150.264C150.569 124.153 156.367 128.547 163.569 128.486C171.87 128.547 177.791 122.688 177.729 114.082C177.791 105.476 171.809 99.5557 163.325 99.5557C157.039 99.5557 152.766 102.058 150.386 106.758H131.709L136.104 55H192.622V71.8457H153.193L151.118 92.9639H151.729C154.719 88.1421 161.677 84.6021 169.917 84.6631C185.969 84.6021 197.871 96.626 197.871 113.472C197.871 131.66 184.138 144.6 163.569 144.6Z" fill="#00F3B2"/>
</svg>
