<svg width="251" height="195" viewBox="0 0 251 195" fill="none" xmlns="http://www.w3.org/2000/svg">
<path d="M125.5 0L152.85 18.2023L188.25 13.0625L200.221 39.4501L234.186 48.75L227.57 76.2523L251 97.5L227.57 118.748L234.186 146.25L200.221 155.55L188.25 181.937L152.85 176.798L125.5 195L98.1503 176.798L62.75 181.937L50.7793 155.55L16.8138 146.25L23.4296 118.748L0 97.5L23.4296 76.2523L16.8138 48.75L50.7793 39.4501L62.75 13.0625L98.1503 18.2023L125.5 0Z" fill="#FFECA7"/>
<path d="M164.865 145.82C145.578 145.759 128 134.285 128 101.997C128.122 72.7002 142.771 55 165.354 55C183.908 55 196.481 66.7798 198.19 81.6113H177.683C176.34 75.874 171.579 72.7612 165.354 72.8223C154.184 72.7612 148.63 83.0151 148.63 99.0674H149.24C153.024 91.0718 161.936 86.3721 171.823 86.3721C187.814 86.3721 199.228 98.2739 199.167 114.692C199.228 133.125 185.251 145.82 164.865 145.82ZM150.583 115.425C150.583 123.42 156.564 129.768 164.743 129.707C172.983 129.768 179.025 123.542 178.903 115.303C179.025 107.185 173.044 101.021 164.865 101.021C156.687 101.021 150.583 107.307 150.583 115.425Z" fill="#00F3B2"/>
<path d="M59.4211 133.096C59.4211 118.772 71.0888 107.174 85.5 107.174C99.9112 107.174 111.579 118.772 111.579 133.096C111.579 135.134 111.308 137.112 110.886 139H130L111.338 55H59.6623L41 139H60.1145C59.6623 137.112 59.4211 135.134 59.4211 133.096ZM71.5108 73.1006H99.5193V88.564H71.5108V73.1006Z" fill="#00F3B2"/>
</svg>
