<svg width="304" height="37" viewBox="0 0 304 37" fill="none" xmlns="http://www.w3.org/2000/svg">
<path d="M27.896 36.576C10.904 36.576 0.92 29.904 0.92 18.48C0.92 7.104 10.808 0.383998 27.464 0.383998C35.336 0.383998 41.864 1.872 48.104 5.088V12.864L47.816 12.912C41.096 9.216 34.904 7.584 27.8 7.584C16.616 7.584 10.04 11.664 10.04 18.576C10.04 25.392 16.52 29.376 27.656 29.376C34.76 29.376 40.904 27.744 47.816 24.048L48.056 24.096V31.872C41.624 35.184 35.672 36.576 27.896 36.576ZM65.3619 1.344V28.944H96.7539V36H56.2419V1.344H65.3619ZM126.663 36.576C109.671 36.576 99.6388 29.904 99.6388 18.48C99.6388 7.056 109.671 0.383998 126.663 0.383998C143.655 0.383998 153.687 7.056 153.687 18.48C153.687 29.904 143.655 36.576 126.663 36.576ZM126.663 29.376C138.231 29.376 144.567 25.296 144.567 18.48C144.567 11.664 138.231 7.584 126.663 7.584C115.095 7.584 108.759 11.664 108.759 18.48C108.759 25.296 115.095 29.376 126.663 29.376ZM195.747 1.344H205.299L205.443 1.536L184.563 36H175.155L153.219 1.536L153.363 1.344H162.963L179.763 28.272L195.747 1.344ZM251.71 1.344V8.4H218.398V15.216H249.598V22.08H218.398V28.944H251.71V36H209.278V1.344H251.71ZM290.958 23.904L303.822 35.808L303.678 36H292.59L280.974 24.72H267.054V36H257.934V1.344H283.614C290.43 1.344 295.182 2.064 298.398 4.08C301.278 5.856 302.718 8.64 302.718 12.288C302.718 18.528 298.542 22.56 290.958 23.904ZM282.51 8.544H267.054V17.52H282.798C287.79 17.52 290.046 17.184 291.534 16.464C292.974 15.744 293.598 14.64 293.598 13.056C293.598 11.376 292.926 10.224 291.438 9.504C289.71 8.688 286.638 8.544 282.51 8.544Z" fill="white"/>
</svg>
