<svg width="389" height="386" viewBox="0 0 389 386" fill="none" xmlns="http://www.w3.org/2000/svg">
<path d="M194.5 0L222.734 43.4613L264.762 13.1342L275.389 63.8599L325.534 50.7628L317.119 101.902L368.609 107.804L342.289 152.45L388.17 176.554L347.5 208.677L381.575 247.727L332.046 262.99L349.714 311.712L298.017 308.052L296.891 359.867L250.007 337.779L230.239 385.688L194.5 348.155L158.761 385.688L138.993 337.779L92.1089 359.867L90.9833 308.052L39.2856 311.712L56.9537 262.99L7.42491 247.727L41.5005 208.677L0.829697 176.554L46.7107 152.45L20.3907 107.804L71.8807 101.902L63.4662 50.7628L113.611 63.8599L124.238 13.1342L166.266 43.4613L194.5 0Z" fill="#00F3B2"/>
</svg>
