<svg width="1271" height="308" viewBox="0 0 1271 308" fill="none" xmlns="http://www.w3.org/2000/svg">
<path d="M898.665 95.8797H898.272L898.665 95.6857C876.46 45.2381 826.449 9.9248 768.283 9.9248C689.582 9.9248 625.619 74.5365 625.619 153.894C625.619 233.252 689.68 297.864 768.283 297.864C825.663 297.864 875.084 263.521 897.682 214.14L824.484 179.894L836.471 227.917L793.73 203.566V253.528L767.497 208.611L742.148 251.976V199.976L698.228 225.006L724.56 179.991H673.862L719.451 153.991L675.532 128.962H728.196L702.846 85.5962L748.436 111.596V61.5366L774.768 106.551L800.117 63.1858V115.186L834.113 95.7827L825.466 130.126L898.665 95.8797Z" fill="#00F3B2"/>
<path d="M432.006 54.5698V14.9954H292.307V14.8965H253.285V292.907H292.307V292.709H432.006V253.134H292.307V171.512L420.885 173.788V134.213L292.307 136.489V54.5698H432.006Z" fill="white"/>
<path d="M1271 54.5698V14.9954H1131.28V14.8965H1092.28V292.907H1131.28V292.709H1271V253.134H1131.28V171.512L1259.88 173.788V134.213L1131.28 136.489V54.5698H1271Z" fill="white"/>
<path d="M620.036 14.8965L553.632 135.671L487.229 14.8965H441.932L534.357 169.16V292.907H572.908V169.06L665.333 14.8965H620.036Z" fill="white"/>
<path d="M238.39 25.5015L201.637 0L116.172 125.432L127.836 145.793L124.209 147.869L104.901 114.164L66.8736 136.305L85.9855 169.713L55.9946 213.699L36.2947 262.922L32.3743 261.341L52.0742 212.117L78.0467 15.716L33.8444 9.78546L0.423194 262.329C-4.18325 297.32 40.9991 314.914 60.8951 285.755L107.94 216.664L95.7864 195.511L99.4128 193.436L115.388 221.408L164.883 307.797L203.793 285.162L138.715 171.493L238.39 25.5015Z" fill="#00F3B2"/>
<path d="M1080.35 203.669L1052.79 208.254L1055.16 222.4C1053.87 214.595 1046.36 209.23 1038.36 210.596L1010.79 215.181L1013.16 229.326C1011.88 221.522 1004.37 216.156 996.366 217.522L968.798 222.107L965.142 200.645L959.807 201.523C962.573 198.401 964.055 194.109 963.265 189.719L958.621 162.501L953.285 163.379C956.052 160.257 957.534 155.965 956.744 151.575L952.1 124.357L946.764 125.235C949.531 122.113 951.013 117.821 950.222 113.431L945.578 86.2129L940.243 87.0909C943.009 83.9691 944.491 79.6767 943.701 75.2867L939.057 48.0689L933.721 48.9469C936.488 45.8251 937.97 41.5327 937.179 37.1427L932.535 9.9248L873.843 19.6803L878.487 46.8982C879.277 51.2882 882.044 54.8977 885.7 56.9464L880.364 57.8244L885.008 85.0423C885.799 89.4322 888.565 93.0418 892.221 95.0904L886.886 95.9684L891.53 123.186C892.32 127.576 895.087 131.186 898.743 133.234L893.407 134.112L898.051 161.33C898.841 165.72 901.608 169.33 905.264 171.379L899.928 172.257L904.572 199.474C905.363 203.864 908.13 207.474 911.785 209.523L906.45 210.401L917.714 276.738C918.999 284.055 925.915 288.932 933.326 287.762L965.34 282.494C972.751 281.226 977.691 274.397 976.407 267.08L978.679 280.25L1006.25 275.665C1014.15 274.397 1019.59 266.983 1018.2 259.081L1020.57 273.226L1048.14 268.641C1056.05 267.373 1061.48 259.959 1060.1 252.057L1062.47 266.202L1090.04 261.617C1097.94 260.349 1103.38 252.935 1101.99 245.033L1096.95 215.473C1095.67 207.669 1088.16 202.304 1080.16 203.669H1080.35Z" fill="#8785FF"/>
</svg>
