<svg width="569" height="445" viewBox="0 0 569 445" fill="none" xmlns="http://www.w3.org/2000/svg">
<path d="M563.485 211.288C571.68 201.63 570.601 186.991 560.79 178.666L361.622 9.65933C345.503 -4.01821 321.282 -2.18091 307.504 14.0558L-0.00273972 376.441L80.7299 444.948L216.964 284.401L364.693 409.759C374.364 417.965 389.005 416.906 397.319 407.108C405.515 397.45 404.436 382.811 394.625 374.486L246.895 249.128L258.654 235.271L406.383 360.629C416.054 368.835 430.695 367.776 439.009 357.978C447.205 348.32 446.126 333.681 436.314 325.356L288.585 199.998L300.344 186.141L448.073 311.499C457.744 319.705 472.385 318.646 480.699 308.848C488.894 299.19 487.815 284.551 478.004 276.226L330.275 150.868L342.034 137.011L489.763 262.369C499.434 270.575 514.075 269.516 522.389 259.718C530.584 250.06 529.505 235.421 519.694 227.096L371.965 101.739L383.723 87.8814L531.453 213.239C541.124 221.445 555.764 220.386 564.079 210.588L563.485 211.288Z" fill="white"/>
</svg>
